# xmcd CD Database Entry
#
# Track frame offsets:
# 150
# 30521
# 47435
# 70009
# 107309
# 128146
# 169184
#
# Disc length: 2499 seconds
#
# Revision: 3
# Processed by: cddbd v1.4PL0 Copyright (c) Steve Scherf et al.
# Submitted via: tcd 2.0b
#
DISCID=4c09c107
DTITLE=Elton John - Live at Tulsa 2000
DYEAR=1900
DGENRE=
TTITLE0=The One
TTITLE1=Blue Eyes
TTITLE2=Crocodile Rock
TTITLE3=Don't Let The Sun Go Down On Me
TTITLE4=Circle Of Life
TTITLE5=Bennie And The Jets
TTITLE6=Candle In The Wind
EXTD=12/3/2000
EXTT0=
EXTT1=
EXTT2=
EXTT3=
EXTT4=
EXTT5=
EXTT6=
PLAYORDER=
